<mxfile host="app.diagrams.net" agent="Mozilla/5.0 (Windows NT 10.0; Win64; x64) AppleWebKit/537.36 (KHTML, like Gecko) Chrome/138.0.0.0 Safari/537.36" version="28.0.7">
  <diagram name="Page-1" id="mN1dsx4YHPyOLAEv2Cr1">
    <mxGraphModel dx="1042" dy="562" grid="1" gridSize="10" guides="1" tooltips="1" connect="1" arrows="1" fold="1" page="1" pageScale="1" pageWidth="827" pageHeight="1169" math="0" shadow="0">
      <root>
        <mxCell id="0" />
        <mxCell id="1" parent="0" />
        <mxCell id="du-3jVsB4qXlSKl39RIc-8" value="User&lt;div&gt;&lt;br&gt;&lt;/div&gt;" style="shape=umlActor;verticalLabelPosition=bottom;verticalAlign=top;html=1;outlineConnect=0;" parent="1" vertex="1">
          <mxGeometry x="225" y="213" width="30" height="60" as="geometry" />
        </mxCell>
        <mxCell id="du-3jVsB4qXlSKl39RIc-10" value="" style="endArrow=none;html=1;rounded=0;" parent="1" edge="1">
          <mxGeometry width="50" height="50" relative="1" as="geometry">
            <mxPoint x="240" y="210" as="sourcePoint" />
            <mxPoint x="240.5" y="120" as="targetPoint" />
          </mxGeometry>
        </mxCell>
        <mxCell id="du-3jVsB4qXlSKl39RIc-11" value="" style="endArrow=none;html=1;rounded=0;" parent="1" edge="1">
          <mxGeometry width="50" height="50" relative="1" as="geometry">
            <mxPoint x="240" y="120" as="sourcePoint" />
            <mxPoint x="360" y="120" as="targetPoint" />
          </mxGeometry>
        </mxCell>
        <mxCell id="du-3jVsB4qXlSKl39RIc-12" value="Website" style="rounded=0;whiteSpace=wrap;html=1;" parent="1" vertex="1">
          <mxGeometry x="359" y="100" width="110" height="50" as="geometry" />
        </mxCell>
        <mxCell id="du-3jVsB4qXlSKl39RIc-14" value="" style="endArrow=none;html=1;rounded=0;" parent="1" edge="1">
          <mxGeometry width="50" height="50" relative="1" as="geometry">
            <mxPoint x="469" y="120" as="sourcePoint" />
            <mxPoint x="640" y="120" as="targetPoint" />
          </mxGeometry>
        </mxCell>
        <mxCell id="du-3jVsB4qXlSKl39RIc-15" value="Brand" style="rounded=0;whiteSpace=wrap;html=1;" parent="1" vertex="1">
          <mxGeometry x="640" y="100" width="110" height="50" as="geometry" />
        </mxCell>
        <mxCell id="du-3jVsB4qXlSKl39RIc-16" value="" style="endArrow=none;html=1;rounded=0;" parent="1" edge="1">
          <mxGeometry width="50" height="50" relative="1" as="geometry">
            <mxPoint x="694.5" y="150" as="sourcePoint" />
            <mxPoint x="694.5" y="290" as="targetPoint" />
          </mxGeometry>
        </mxCell>
        <mxCell id="du-3jVsB4qXlSKl39RIc-17" value="Product" style="rounded=0;whiteSpace=wrap;html=1;" parent="1" vertex="1">
          <mxGeometry x="640" y="270" width="110" height="50" as="geometry" />
        </mxCell>
        <mxCell id="du-3jVsB4qXlSKl39RIc-18" value="" style="endArrow=none;html=1;rounded=0;exitX=0.5;exitY=1;exitDx=0;exitDy=0;" parent="1" source="du-3jVsB4qXlSKl39RIc-17" edge="1">
          <mxGeometry width="50" height="50" relative="1" as="geometry">
            <mxPoint x="694.5" y="340" as="sourcePoint" />
            <mxPoint x="695" y="440" as="targetPoint" />
          </mxGeometry>
        </mxCell>
        <mxCell id="du-3jVsB4qXlSKl39RIc-19" value="" style="endArrow=none;html=1;rounded=0;" parent="1" edge="1">
          <mxGeometry width="50" height="50" relative="1" as="geometry">
            <mxPoint x="695" y="440" as="sourcePoint" />
            <mxPoint x="480" y="440" as="targetPoint" />
          </mxGeometry>
        </mxCell>
        <mxCell id="du-3jVsB4qXlSKl39RIc-20" value="Order" style="rounded=0;whiteSpace=wrap;html=1;" parent="1" vertex="1">
          <mxGeometry x="370" y="420" width="110" height="50" as="geometry" />
        </mxCell>
        <mxCell id="du-3jVsB4qXlSKl39RIc-21" value="" style="endArrow=none;html=1;rounded=0;" parent="1" edge="1">
          <mxGeometry width="50" height="50" relative="1" as="geometry">
            <mxPoint x="370" y="439" as="sourcePoint" />
            <mxPoint x="240" y="439" as="targetPoint" />
          </mxGeometry>
        </mxCell>
        <mxCell id="du-3jVsB4qXlSKl39RIc-22" value="" style="endArrow=none;html=1;rounded=0;" parent="1" edge="1">
          <mxGeometry width="50" height="50" relative="1" as="geometry">
            <mxPoint x="240" y="440" as="sourcePoint" />
            <mxPoint x="240" y="300" as="targetPoint" />
          </mxGeometry>
        </mxCell>
        <mxCell id="du-3jVsB4qXlSKl39RIc-24" value="1:Registration()&lt;div&gt;2:Login()&lt;/div&gt;&lt;div&gt;3:Profile Edit()&lt;/div&gt;&lt;div&gt;4: Forgot Password()&lt;/div&gt;" style="text;html=1;align=center;verticalAlign=middle;resizable=0;points=[];autosize=1;strokeColor=none;fillColor=none;" parent="1" vertex="1">
          <mxGeometry x="225" y="35" width="140" height="70" as="geometry" />
        </mxCell>
        <mxCell id="du-3jVsB4qXlSKl39RIc-26" value="" style="endArrow=classic;html=1;rounded=0;" parent="1" edge="1">
          <mxGeometry width="50" height="50" relative="1" as="geometry">
            <mxPoint x="245" y="105" as="sourcePoint" />
            <mxPoint x="345" y="105" as="targetPoint" />
          </mxGeometry>
        </mxCell>
        <mxCell id="du-3jVsB4qXlSKl39RIc-28" value="" style="endArrow=classic;html=1;rounded=0;exitX=-0.049;exitY=1.047;exitDx=0;exitDy=0;exitPerimeter=0;" parent="1" edge="1">
          <mxGeometry width="50" height="50" relative="1" as="geometry">
            <mxPoint x="495" y="100" as="sourcePoint" />
            <mxPoint x="625" y="100" as="targetPoint" />
          </mxGeometry>
        </mxCell>
        <mxCell id="du-3jVsB4qXlSKl39RIc-30" value="7:Manage Cart()" style="text;html=1;align=center;verticalAlign=middle;resizable=0;points=[];autosize=1;strokeColor=none;fillColor=none;" parent="1" vertex="1">
          <mxGeometry x="710" y="340" width="110" height="30" as="geometry" />
        </mxCell>
        <mxCell id="du-3jVsB4qXlSKl39RIc-31" value="" style="endArrow=classic;html=1;rounded=0;exitX=0.168;exitY=0.82;exitDx=0;exitDy=0;exitPerimeter=0;" parent="1" edge="1">
          <mxGeometry width="50" height="50" relative="1" as="geometry">
            <mxPoint x="710" y="178.00000000000003" as="sourcePoint" />
            <mxPoint x="710.2" y="245.4" as="targetPoint" />
          </mxGeometry>
        </mxCell>
        <mxCell id="du-3jVsB4qXlSKl39RIc-33" value="" style="endArrow=classic;html=1;rounded=0;" parent="1" edge="1">
          <mxGeometry width="50" height="50" relative="1" as="geometry">
            <mxPoint x="710" y="330" as="sourcePoint" />
            <mxPoint x="710.2" y="398.7" as="targetPoint" />
          </mxGeometry>
        </mxCell>
        <mxCell id="du-3jVsB4qXlSKl39RIc-35" value="" style="endArrow=classic;html=1;rounded=0;exitX=0.96;exitY=-0.01;exitDx=0;exitDy=0;exitPerimeter=0;" parent="1" edge="1">
          <mxGeometry width="50" height="50" relative="1" as="geometry">
            <mxPoint x="612" y="450" as="sourcePoint" />
            <mxPoint x="500" y="450.6" as="targetPoint" />
          </mxGeometry>
        </mxCell>
        <mxCell id="du-3jVsB4qXlSKl39RIc-36" value="" style="endArrow=classic;html=1;rounded=0;" parent="1" edge="1">
          <mxGeometry width="50" height="50" relative="1" as="geometry">
            <mxPoint x="260" y="318" as="sourcePoint" />
            <mxPoint x="260" y="408" as="targetPoint" />
          </mxGeometry>
        </mxCell>
        <mxCell id="du-3jVsB4qXlSKl39RIc-37" value="10: Logout()" style="text;html=1;align=center;verticalAlign=middle;resizable=0;points=[];autosize=1;strokeColor=none;fillColor=none;" parent="1" vertex="1">
          <mxGeometry x="250" y="348" width="90" height="30" as="geometry" />
        </mxCell>
        <mxCell id="ZOFslZmYU_saUsJFSlz4-3" value="8:Place Order()" style="text;strokeColor=none;align=center;fillColor=none;html=1;verticalAlign=middle;whiteSpace=wrap;rounded=0;" parent="1" vertex="1">
          <mxGeometry x="525" y="450" width="90" height="30" as="geometry" />
        </mxCell>
        <mxCell id="ZOFslZmYU_saUsJFSlz4-5" value="9:View Order Details()" style="text;strokeColor=none;align=center;fillColor=none;html=1;verticalAlign=middle;whiteSpace=wrap;rounded=0;" parent="1" vertex="1">
          <mxGeometry x="507.5" y="470" width="125" height="30" as="geometry" />
        </mxCell>
        <mxCell id="7iI9e-vBZ0I9COCi0j6J-1" value="5: View Brand()" style="text;html=1;align=center;verticalAlign=middle;resizable=0;points=[];autosize=1;strokeColor=none;fillColor=none;" parent="1" vertex="1">
          <mxGeometry x="505" y="70" width="110" height="30" as="geometry" />
        </mxCell>
        <mxCell id="7iI9e-vBZ0I9COCi0j6J-2" value="6: View Product()" style="text;html=1;align=center;verticalAlign=middle;resizable=0;points=[];autosize=1;strokeColor=none;fillColor=none;" parent="1" vertex="1">
          <mxGeometry x="710" y="200" width="120" height="30" as="geometry" />
        </mxCell>
        <mxCell id="A0FhkWpKjCfXGCyU8hhm-1" value="Cart" style="rounded=0;whiteSpace=wrap;html=1;" parent="1" vertex="1">
          <mxGeometry x="640" y="410" width="110" height="50" as="geometry" />
        </mxCell>
      </root>
    </mxGraphModel>
  </diagram>
</mxfile>
